{"title":"The.Social.Network.2010.BRRIP.720P.H264-ZEKTORM","uid":6048419,"size":2726328530,"categoryP":"video","categoryS":"hd___movies","magnet":"?xt=urn:btih:8d8b42f261d7bc4563c643401dbc97008ca0caf5&amp;dn=The.Social.Network.2010.BRRIP.720P.H264-ZEKTORM&amp;tr=udp%3A%2F%2Ftracker.openbittorrent.com%3A80&amp;tr=udp%3A%2F%2Fopen.demonii.com%3A1337&amp;tr=udp%3A%2F%2Ftracker.coppersurfer.tk%3A6969&amp;tr=udp%3A%2F%2Fexodus.desync.com%3A6969","seeders":0,"leechers":1,"uploader":"blowley","files":4,"time":1292639843,"description":"Title                            : The Social Network\nYear                             : 2010\nGenre                            : Biography | Drama | History\niMDB URL                         : http://www.imdb.com/title/tt1285016/\n\nComplete name                    : The.Social.Network.2010.BRRIP.720P.H264-ZEKTORM.mp4\nFormat                           : MPEG-4\nFormat profile                   : Base Media\nCodec ID                         : isom\nFile size                        : 2.54 GiB\nDuration                         : 2h 0mn\nOverall bit rate                 : 3018 Kbps\nSubtitles                        : English (Format: srt)\n\nVideo\nID                               : 1\nFormat                           : AVC\nFormat/Info                      : Advanced Video Codec\nFormat profile                   : &lt;a class=&quot;__cf_email__&quot; href=&quot;/cdn-cgi/l/email-protection&quot; data-cfemail=&quot;f5bd9c929db5b9c1dbc5&quot;&gt;[email&amp;#160;protected]&lt;/a&gt;&lt;script cf-hash='f9e31' type=&quot;text/javascript&quot;&gt;\n/* &lt;![CDATA[ */!function(){try{var t=&quot;currentScript&quot;in document?document.currentScript:function(){for(var t=document.getElementsByTagName(&quot;script&quot;),e=t.length;e--;)if(t[e].getAttribute(&quot;cf-hash&quot;))return t[e]}();if(t&amp;&amp;t.previousSibling){var e,r,n,i,c=t.previousSibling,a=c.getAttribute(&quot;data-cfemail&quot;);if(a){for(e=&quot;&quot;,r=parseInt(a.substr(0,2),16),n=2;a.length-n;n+=2)i=parseInt(a.substr(n,2),16)^r,e+=String.fromCharCode(i);e=document.createTextNode(e),c.parentNode.replaceChild(e,c)}}}catch(u){}}();/* ]]&gt; */&lt;/script&gt;\nFormat settings, CABAC           : Yes\nFormat settings, ReFrames        : 5 frames\nCodec ID                         : avc1\nCodec ID/Info                    : Advanced Video Coding\nDuration                         : 2h 0mn\nBit rate mode                    : Variable\nBit rate                         : 2592 Kbps\nWidth                            : 1280 pixels\nHeight                           : 528 pixels\nDisplay aspect ratio             : 2.424\nFrame rate mode                  : Constant\nFrame rate                       : 23.976 fps\nResolution                       : 24 bits\nColorimetry                      : 4:2:0\nScan type                        : Progressive\nBits/(Pixel*Frame)               : 0.160\nStream size                      : 2.18 GiB (86%)\nTitle                            : Video\nWriting library                  : x264\n\nAudio\nID                               : 2\nFormat                           : AAC\nFormat/Info                      : Advanced Audio Codec\nFormat version                   : Version 4\nFormat profile                   : LC\nFormat settings, SBR             : No\nCodec ID                         : 40\nDuration                         : 2h 0mn\nBit rate mode                    : Variable\nBit rate                         : 422 Kbps\nMaximum bit rate                 : 508 Kbps\nChannel(s)                       : 6 channels\nChannel positions                : Front: L C R, Rear: L R, LFE\nSampling rate                    : 48.0 KHz\nResolution                       : 16 bits\nStream size                      : 364 MiB (14%)\nLanguage                         : English\n\n\nScreenshots:\n &lt;a href=&quot;\nhttp://img513.imageshack.us/img513/3967/snapsn1.png&quot; rel=&quot;nofollow&quot; target=&quot;_NEW&quot;&gt;\nhttp://img513.imageshack.us/img513/3967/snapsn1.png&lt;/a&gt;\n &lt;a href=&quot;\nhttp://img263.imageshack.us/img263/6964/snapsn2.png&quot; rel=&quot;nofollow&quot; target=&quot;_NEW&quot;&gt;\nhttp://img263.imageshack.us/img263/6964/snapsn2.png&lt;/a&gt;\n &lt;a href=&quot;\nhttp://img202.imageshack.us/img202/6395/snapsn3.png&quot; rel=&quot;nofollow&quot; target=&quot;_NEW&quot;&gt;\nhttp://img202.imageshack.us/img202/6395/snapsn3.png&lt;/a&gt;\n &lt;a href=&quot;\nhttp://img828.imageshack.us/img828/858/snapsn4.png&quot; rel=&quot;nofollow&quot; target=&quot;_NEW&quot;&gt;\nhttp://img828.imageshack.us/img828/858/snapsn4.png&lt;/a&gt;","torrent":{"xt":"urn:btih:8d8b42f261d7bc4563c643401dbc97008ca0caf5","amp;dn":"The.Social.Network.2010.BRRIP.720P.H264-ZEKTORM","amp;tr":["udp%3A%2F%2Ftracker.openbittorrent.com%3A80","udp%3A%2F%2Fopen.demonii.com%3A1337","udp%3A%2F%2Ftracker.coppersurfer.tk%3A6969","udp%3A%2F%2Fexodus.desync.com%3A6969"],"infoHash":"8d8b42f261d7bc4563c643401dbc97008ca0caf5","infoHashBuffer":{"type":"Buffer","data":[141,139,66,242,97,215,188,69,99,198,67,64,29,188,151,0,140,160,202,245]},"announce":[],"urlList":[]}}